<?xml version="1.0" encoding="utf-8"?>
<!-- Generator: Adobe Illustrator 24.0.2, SVG Export Plug-In . SVG Version: 6.00 Build 0)  -->
<svg version="1.1" id="Calque_1" xmlns="http://www.w3.org/2000/svg" xmlns:xlink="http://www.w3.org/1999/xlink" x="0px" y="0px"
	 viewBox="0 0 1000 580" style="enable-background:new 0 0 1000 580;" xml:space="preserve">
<style type="text/css">
	.st0{fill:#63833F;}
	.st1{fill:#FFFFFF;}
	.st2{fill:#F3D33B;}
	.st3{fill:#73614A;}
	.st4{fill:#C7AE7D;}
	.st5{fill:#5C5D5F;}
	.st6{opacity:0.3;}
	.st7{fill:#4F4E4E;}
	.st8{opacity:0.39;}
	.st9{fill:#222221;}
</style>
<g>
	<g>
		<g>
			<path class="st0" d="M583.7,297.7c9.2-1.5,18.6,4.9,22.4,13.5c3.8,8.6,2.8,18.6-0.6,27.4c-3.4,8.7-9,16.4-14.6,23.9
				c-2.6,3.6-5.2,7.1-7.9,10.7c-3.2,4.4-6.5,8.8-9.3,13.5c-2.3,3.9-4.3,8-6.5,11.9c-4.5,8.1-9.8,15.9-16.7,22.1s-15.5,10.9-24.7,12
				c-4.3,0.5-8.7,0.3-13,0.1c-13.7-0.8-28.1-2.2-39.4-9.9c-1.7-1.2-3.4-2.5-4.4-4.4l-0.1-0.5c-8.7-28.3-25-55-49.4-71.8
				c-6.3-4.4-13.1-8.1-18.6-13.5c-7.3-7.3-11.5-17.1-14-27.1c-1.1-4.2-1.9-8.4-1.8-12.8c0.1-9.1,4.2-18.1,11-24.2
				c6.8-6.1,16.2-9.1,25.3-8.1"/>
		</g>
		<g>
			<path class="st1" d="M544.4,342.1c11.5,12.2,22.4,31.7,22.1,49c-0.3,15.7-18,31.4-31,38.3c-5.6,3-11.7,5.2-18,5.7
				c-8.1,0.7-16.1-1.4-23.9-3.5c-8.1-2.1-16.6-4.6-22.3-10.7c-4.1-4.5-6.2-10.4-8.4-16.1c-6-15.1-14-29.4-23.8-42.4
				c-1.6-2.1-3.2-4.2-5.2-5.9c-1.6-1.4-3.4-2.5-5.1-3.7c-4.3-3-8.3-6.3-11.9-10.1l1.2,0.9c-7.2-5.1-10.7-14.8-8.5-23.3
				c0.4-1.5,1-3.1,2.1-4.2c0.9-0.8,2-1.3,3.1-1.7c1.5-0.6,3.1-1,4.6-1.3"/>
		</g>
		<g>
			<path class="st2" d="M545.1,424.1c-5.6-19.2-7.8-39.5-6.4-59.5c0.6-8,1.7-16,4.8-23.3c3.1-7.4,7.2-17.1,14.2-20.9
				c2.6-1.4,5.5-2.4,8.1-3.8c7.1-3.8,11-8.4,14.7-15.3c3.8-7.1,3.8-13.8,2.8-21.8l5.2-2.7c6.2-1.8,12.4-6.5,16.9-11.2
				c6.2-6.3,8.7-15.5,8.8-24.4s-1.8-17.6-3.2-26.4c-3.4-21.4-3.7-43.3-0.7-64.8c1.9-14.2,9.4-37.6,1.3-50.9
				c-7.2-11.8-24-21.9-36.7-26.2c-8.3-2.9-17.1-4.2-25.8-5.5c-7.8-1.2-15.6-2.4-23.4-3.6c-19.9-3-40.1-6-59.9-2.9
				c-19.8,3.2-39.6,13.5-49,31.2c-5,9.4-6.8,20-8.5,30.5c-1.3,7.9-2.6,15.8-2.5,23.8c0.2,13.7,4.5,27.3,12.3,38.5l1.7,5.7
				c-2.3-4.8-6.4-8.7-11.2-11.1c-4.8-2.3-10.3-3.2-15.6-2.7c-4.6,0.4-9.3,1.8-12.8,4.8c-1.9,1.6-5.4,3.7-6.7,5.8
				c-4,6.3-5.8,13.7-5.1,21.2c0.6,6.3,3.7,12.2,8.2,16.5c4.6,4.3,8.5,7.1,14.6,8.2c3.1,0.6,9.4,0.7,12.4-0.2c4.8-1.4,8.3-5.3,11.7-9
				c10.9,31.4,8.8,67.2,5.1,99.7c-0.6,5.6-3.4,13.7-1,19.1c2.6,6.2,12,11.2,16.6,16.1c11.6,12.3,20.7,27,26.2,43
				c2.7,7.7,5,16.3,11.7,20.9c2.9,2,6.4,3.1,9.8,4c19.4,5.1,34,7.8,59.6,0.3"/>
		</g>
		<g>
			<path class="st3" d="M419.3,189.8c-2.5-10.2,3.2-20.3,5.7-30.5c2.5-9.9,2.1-20.3,2.8-30.4c0.9-14,3.9-27.8,8.8-40.9
				c1.6-4.1,3.5-8.5,7.3-10.8l1,0.5l0.9-0.9c1.9,2.6,5.4,3.3,8.6,3.5c31.7,2.2,51.1-7.3,85.2-5.9c7.1,0.3,22,1.9,28.7,4.2
				c6.5,2.2,14.7,3.3,20.8,6.3c8.8,4.3,13.1,5.4,21.2,11.1c0.5,0.4,1.1,0.7,1.7,0.9c1.4,0.2,2.7-0.9,3.2-2.2s0.3-2.8,0.1-4.2
				c1.9,0.8,7.2-1.2,9.1-2.1c-2.6-5.5-8.3-8.9-10.9-14.4c6.4,1.8,12.6,4.3,18.4,7.3c-0.1-14.7-7.3-28.7-17.1-39.7
				s-22.2-19.3-34.7-27.1c-2.8-1.8-5.7-3.5-8.7-4.8c-4.3-1.8-9-2.7-13.7-3.4c-34.1-5.2-70.7-2.7-100.3,15c-4.5,2.7-9,6-11.3,10.7
				c-1,2.1-1.6,4.4-2,6.6l1.6-7.2c-11.8,2.2-44.9,19-56.6,56.5c-9,29-1.1,68.4,5.3,87.5"/>
		</g>
		<g>
			<g>
				<path class="st4" d="M521.3,323.4c12.8,2.3,26.3,1.8,38.3-3.6c10.2-4.6,18.4-14.5,22.7-24.5c2.3-5.3,2.2-11.5-0.4-16.6
					c12.5-1.4,23.7-10,28.8-21.5c5.6-12.7-2.1-21.8-12.7-28.3c-7.1-4.3-15.3-6.8-23.5-8c-2.8-0.4-6.8-1.5-9.6-0.6
					c-3.2,1-5.3,4.3-8.5,5.5c-3.4,1.3-7.4,1.3-10.7-0.5c-1.5-0.8-2.8-2-4.2-2.9c-3.1-2.1-6.9-3.2-10.6-3c-3.9,0.1-7.7,1.5-11.6,1.8
					s-8.4-1.1-10-4.7l-2.3,1.4c-11.5,1.1-29.6,6.4-36.9,11.3c-7.4,5-13.9,11.7-16.4,19.9c-1.1,3.5-2.4,7.1-2.6,10.6
					c-0.6,12.8,1.7,24.8,10.3,34.9c1.6,1.9,3.4,3.6,5.3,5.3c6.5,6.1,13.1,9.4,21.1,13.6c6,3.1,12.6,5.1,19.1,7
					C511.7,322,516.4,322.5,521.3,323.4z"/>
			</g>
		</g>
		<g>
			<path class="st5" d="M564,196.4c3,3.9,11.1,5.3,15.9,6c12.6,1.7,17.6-1.6,28.1-8.6s15.1-18.4,16.9-30.9
				c0.9-6.2-0.2-13.6-5.6-16.8c-1.8-1-0.8-1.7-2.9-2.1c-18.1-3.5-28.4-4.6-46.9-4.4c-4,0-9.3-0.3-12.9,1.2l1.7,0.1
				c-1.6,0.8-2.5,2.4-3.2,4.1c-3.8,8.6-4.9,18.3-3.1,27.5"/>
		</g>
		<g>
			<path class="st5" d="M524.3,140c-15.3-0.4-35.8-2.9-50.5-2.7c-4.7,0.1-7.8,0.1-12.5,0.6c-3,0.3-6.4-1.2-11.7,4.3
				c-1.6,1.6-3.4,6.3-3.9,8.5c-2.7,10.8-3.7,16.1-0.9,26.1s6.2,13.7,14.8,19.3c2.7,1.7,5.5,3.2,8.6,4.1c11.3,3.5,23.3,2.2,34.2-2.4
				c6.7-2.8,13.8-10.6,19.4-21c2.9-5.3,4.8-15.1,5.6-19.9C528.2,151.2,526.5,144,524.3,140"/>
		</g>
		<g class="st6">
			<path class="st7" d="M409.2,199.1c-3.6-3.1-8.6-4.4-13.3-3.8s-9.1,3.1-12.3,6.6c-1,1.1-2,2.4-2.1,3.9c-0.2,1.5,0.7,3.2,2.1,3.5
				c1.2,0.2,2.4-0.5,3.5-1.1c2.2-1,4.7-1.4,7-0.9c2.2,0.4,4.3,1.5,6.5,2c4,0.9,7.7,1,10.8-1.6c0.8-0.7,1.3-1.2,1.5-2.2
				c0.2-1-0.5-2.2-1-2.8c-1.1-1.5-2.2-2.1-3.2-3.5"/>
		</g>
		<g class="st6">
			<path class="st7" d="M565.6,217.4c-0.5,5.3-2.4,10.9-7.2,14.5s-13.1,4.5-17.6,0.7c-1.4-1.2-2.3-2.7-3.8-3.7
				c-3.4-2.4-8.5-1.7-13-1.6c-3.9,0.1-7.9-0.2-11.5-1.5c-1.3-0.5-2.6-1.1-3.4-2c-0.8-1-0.8-2.4,0.2-3.2c0.7-0.6,1.7-0.7,2.7-0.9
				c5.5-0.7,11.2-0.7,16.7,0c1.8,0.2,3.5,0.5,5.1,1.2c1.7,0.7,3,1.7,4.6,2.6c4.4,2.4,10,3.1,15.2,2s9.6-4.2,12-8.1"/>
		</g>
		<g class="st6">
			<path class="st7" d="M416.3,224.3c1.5,0.3,2.7,1.6,3.7,2.8c8.3,10.9,9.6,25.5,10.2,39.2c1.3,28.4,1.3,57,0.1,85.4
				c-9.3-6.7-19.3-14.2-22.4-25.2c-1.2-4.1-1.3-8.5-1.3-12.8c-0.1-12.3,0.4-24.7,1.3-37c0.3-4,0.8-8.3,3.6-11.1
				c2.3-2.4,5.8-3.2,9.1-3.9c-1.4-11.9-2.8-23.7-4.1-35.6"/>
		</g>
		<g class="st6">
			<path class="st7" d="M484.4,267c23,9.7,48.2,14.3,73.2,13.3c7.5-0.3,15-1.1,22.1-3.4c1.6,3.6,2.3,7.5,2,11.5
				c-34.2,5.2-70.2-2.1-99.7-20.2"/>
		</g>
		<g class="st6">
			<path class="st7" d="M606.7,315c-10.4-1.4-21.1,2.7-29.1,9.5s-13.7,16-17.9,25.6c-7.6,17.3-13.6,36.5-12.3,55.4
				c0.3,5.1,1,12.3-1.2,16.9c-10.7-27.5-8.6-60.5,1-88.3c0.9-2.7,2-5.4,3.9-7.4c1.6-1.6,3.6-2.7,5.5-3.8
				c9.4-5.4,17.7-12.7,24.1-21.4c0.5-0.7,1.1-1.5,1.9-1.8c0.7-0.2,1.5-0.1,2.2,0c4.5,0.8,9.1,1.6,13.2,3.7c4.1,2.1,7.7,5.7,8.6,10.2
				"/>
		</g>
		<g class="st6">
			<path class="st7" d="M396.9,175.2c-3.7-4.7-5.1-10.7-6.2-16.6c-3-15.5-5.3-31.2-4.1-47s6.6-35.9,16.2-48.4
				C413,49.7,428.2,41,443,32.5c-1.6,10.2-2.7,25-1.4,35.2c0.4,3.4,0.3,8.1-3.1,8.9c-4.1,1.1-6.5-5.2-10.7-6.1
				c-2.9-0.6-5.6,1.6-7.5,3.9c-8.8,10.3-12.1,24.1-14.3,37.4c-3.6,21.1-5.2,43.1,0.2,63.8c-2.6-0.5-5.1-0.9-7.7-1.4"/>
		</g>
		<g class="st6">
			<path class="st7" d="M473.9,78.5c-4,3.4-10,2.2-15.1,0.9c-6.6-1.7-14-4-17-10.1c-1.5-3-1.6-6.5-1.8-9.9
				c-0.3-9.8-0.4-20.6,5.6-28.4c4.4-5.8,11.5-9,18.2-11.8c1.6-0.7,4.1-0.8,4.2,0.9c0,0.5-0.2,0.9-0.4,1.3
				c-2.8,5.3-6.2,10.2-8.4,15.7c-2.3,5.5-3.4,11.8-1.4,17.3c1.2,3.2,3.4,6.1,6.2,8c2.1,1.4,4.6,2.4,6.5,4c2.9,2.5,4.5,6.5,3.9,10.3"
				/>
		</g>
		<g class="st6">
			<path class="st7" d="M445,78.6c20.6,8.6,44.1,2.6,66.4,3.9c8.5,0.5,16.9,2,25.3,3.6c22.6,4.2,45.6,8.5,65.6,19.7
				c2.1,1.2,4.2,2.4,6.5,2.7c2.4,0.3,5.1-0.6,6-2.8c1.4-3.3-1.7-6.6-4.5-8.7c-18.4-13.3-41.1-19.3-63.4-23.3c-5.8-1-11.7-2-17.6-1.9
				c-11.8,0.1-23.1,4-34.6,6.5c-12.1,2.5-24.5,3.4-36.8,2.7"/>
		</g>
		<g class="st8">
			<path class="st1" d="M587,139.9l-22.6,55.3c2,1.2,4.9,1.6,6.8,2.7l21.7-55.2c0.3-0.6,0.4,0.5,0,0c-0.3-0.4-0.7-0.5-1.2-0.5
				C590.3,142,588.4,139.5,587,139.9"/>
		</g>
		<g class="st8">
			<path class="st1" d="M609.1,142.5C607.5,145.1,610.2,139.4,609.1,142.5l-20.5,57.7c-1.1,3.3,1.1-3.3,0,0c1.7,0.7,4.4,2.1,5.6,0.3
				c1.2-1.8-1,0.1-0.4-2.2l19.1-55.5c0.4-1-1.3,3.5-1.6,2.4s-1.6-1.5-1.9-0.4"/>
		</g>
		<g class="st8">
			<path class="st1" d="M481.3,134.8l-24.4,59.6c2.1,1.3,5.2,1.7,7.4,2.9l23.3-59.5c0.3-0.6,0.4,0.6,0,0c-0.3-0.4-0.8-0.5-1.3-0.6
				C484.8,137.1,482.7,134.3,481.3,134.8"/>
		</g>
		<g class="st8">
			<path class="st1" d="M504.6,138.8C502.9,141.5,505.7,135.6,504.6,138.8l-21.6,60.9c-1.2,3.5,1.2-3.5,0,0c1.8,0.8,4.6,2.3,5.9,0.3
				c1.3-1.9-1.1,0.1-0.4-2.3l20.2-58.6c0.4-1.1-1.4,3.7-1.7,2.6c-0.3-1.1-1.7-1.6-2-0.4"/>
		</g>
		<g class="st8">
			<path class="st1" d="M547,153.6c0,8.1,1.7,16.2,5.1,23.5c3,6.6,7.3,12.6,10,19.4c2.7,6.8,3.6,14.8-0.1,21c-3.7,6.2-13.3,9-18.6,4
				c5.6-0.7,10-5.6,11.5-11c1.5-5.4,0.4-11.3-1.5-16.6c-1.9-5.3-4.6-10.3-6.7-15.5c-4.1-10.3-5.6-21.6-4.3-32.6c2,2.4,3.6,5,4.9,7.8
				"/>
		</g>
		<g class="st8">
			<path class="st1" d="M608.4,195.2c0,8.8,4,17.1,4.9,25.8c0.5,4.7,0.1,9.4-0.3,14c-0.7,7-1.6,14-4,20.6s-6.5,12.8-12.4,16.6
				c-6.5,4.2-14.6,5.2-22.3,6c11.6-3,21.2-11.9,26.4-22.8c5.2-10.8,6.1-23.4,4.1-35.2c-1.4-7.6-3.7-16.3,0.9-22.5"/>
		</g>
		<g class="st8">
			<path class="st1" d="M549.1,5.7c31.5,5.3,60.3,24.8,76.9,52c4,6.5,7.4,14.2,5.5,21.6c-13.4-18.9-31-34.8-51.3-46
				c-12.2-6.8-25.4-11.9-36.9-20c-1.8-1.3-3.7-4-1.9-5.4c0.5-0.4,1.3-0.5,1.9-0.6c2.3-0.3,4.6-0.5,7-0.8"/>
		</g>
		<g class="st8">
			<path class="st1" d="M609.4,330c-8.8,27.5-30.1,46.4-42.1,72.2c5.4-22,14.2-42.8,25.8-61c2.8-4.4,5.8-8.8,7.9-13.8
				c1.3-3.2,2.3-6.8,4.7-8.8c0.6-0.5,1.3-0.9,2-0.5c0.9,0.5,1.1,2,1,3.2c0,2.6-0.1,5.1-0.1,7.7"/>
		</g>
		<g>
			<path class="st9" d="M410.5,196.4c-5.3-2.9-11-5.7-17.2-4.6c-4.9,0.8-11.1,3.3-13.8,7.6c-2.1,3.4,3.2,6.4,5.3,3.1
				c1.7-2.7,6.8-4.4,10.1-4.8c1.4,6.5,0.5,12.9-2.7,18.8c-1.9,3.5,3.4,6.5,5.3,3.1c3.6-6.5,4.9-13.7,3.8-20.9c2.1,0.8,4.2,2,6.1,3.1
				C410.9,203.5,414,198.3,410.5,196.4z"/>
			<path class="st9" d="M610.6,32.9c-12.7-11.8-27.7-22.1-44.2-27.6c-17.7-5.8-38.2-6.3-56.6-4.3c-19.2,2.1-38.4,7.8-54.9,18.2
				c-3.8,2.4-7.4,5.1-10,8.9c-0.1,0.1-0.1,0.2-0.2,0.3c-16.8,3.4-32.8,16.6-43.1,29.6c-17.6,22.2-21.5,49.7-18.6,77.3
				c1.4,13.1,3.9,26.1,7.8,38.7c-1,0.1-1.9,0.3-2.9,0.5c-13.3,3.2-21.6,15.1-22.7,28.2c-1.1,13.4,6.9,26.4,19.3,31.9
				c5.3,2.3,11.5,2.8,17.1,2.1c4.9-0.6,8.8-3.3,12.2-6.6c2.6,8.8,4.1,17.9,5,27.1c-12.5-0.2-24.4,5.9-31.2,16.5
				c-8,12.6-6.1,27.3-1.2,40.6c2.3,6.2,5.3,12.1,9.5,17.2c4.7,5.7,10.8,9.7,16.9,13.7c12.4,8.1,23.1,17.9,31.8,29.9
				c9.5,13.1,16.4,27.9,21.2,43.3c0,0.4,0.2,0.9,0.5,1.4c4,6.4,12.4,9.8,19.4,11.9c8,2.4,16.5,3.2,24.9,3.8
				c8.7,0.6,17.2,0.7,25.4-2.4c7.5-2.9,14.2-7.7,19.8-13.5c6-6.2,10.7-13.5,14.8-21c4.5-8.2,9.1-15.9,14.6-23.4
				c10.4-14.1,23.7-28.7,26-46.8c2-15.8-7.7-34.6-25.3-34c0.9-4.4,1.1-9.1,0.6-13.9c3.3-1,6.5-2.2,9.5-3.8
				c11.7-6.5,19.3-17,20.9-30.3c1-8.1-0.2-16.3-1.6-24.3c-1.5-9.1-2.9-18.2-3.5-27.5c3.1-2.5,5.9-5.2,8.2-8.6
				c6-8.8,10.3-22.4,7.7-33c-1.1-4.5-4.1-8.3-7.9-10.9c-1.5-1-3.2-1.4-5-1.7c2.1-13.8,4.1-27.8,0.5-41.4c1.6-1.1,2.7-3.2,3-5.5
				c2.6-0.4,5.3-1.5,7.6-2.5c1.6-0.7,1.8-2.9,1.1-4.2c-1.3-2.5-3.1-4.6-5-6.7c2.8,1.1,5.6,2.4,8.3,3.8c2,1,4.7-0.2,4.6-2.6
				C634.5,62.3,624.2,45.6,610.6,32.9z M457.9,24.6c14.9-9.4,32.2-14.9,49.6-17.1c16.9-2.2,35.1-1.8,51.7,2.2
				c15.1,3.7,28.1,12.1,40.1,21.7c14.3,11.3,26.8,26.5,29.1,44.9c-4.6-2.1-9.3-3.8-14.2-5.2c-2.7-0.8-4.7,2.2-3.5,4.5
				c2.3,4.4,6.1,7.5,9,11.4c-1.3,0.5-2.7,0.8-3.7,0.5c-1.7-0.4-4.1,0.9-3.9,2.9c0.1,0.7,0.4,1.5-0.1,2.2c-0.8,1.2-0.3,0.4-1.6-0.1
				c-1.2-0.5-2.4-1.6-3.6-2.3c-2.3-1.3-4.6-2.5-7-3.6c-5-2.3-10-5-15.3-6.6c-9.9-3.1-20.2-5.9-30.6-7.2c-22.6-2.9-44.3,0.1-66.7,3.1
				c-6.3,0.8-12.6,1.5-18.9,1.7c-3.4,0.1-6.8,0.1-10.2,0c-3.6-0.1-7.8,0.1-10.3-2.8c-0.2-0.3-0.5-0.5-0.7-0.6
				c-1.8-9-2.3-18.2-1.3-27.3c0.5-4.3,1-9.3,2.9-13.2C450.7,29.6,454.3,26.8,457.9,24.6z M389.3,101.1c3.5-23.3,17.1-44.1,36.6-57.2
				c4.8-3.2,10.2-6.3,15.8-8.2c-0.6,2.3-1,4.7-1.3,7c-1.6,10.9-1.2,21.9,0.9,32.7c-6.6,5.3-8.9,14.7-11.2,22.5
				c-2.9,10.1-4.7,20.5-5.4,31c-0.7,10.7-0.2,21.5-3.3,31.9c-2,6.9-4.7,13.5-5.5,20.4c-5.2-4.5-12-7-18.9-7.4
				C389.6,150.9,385.7,125,389.3,101.1z M415.5,336.8c-1.9-2.7-3.1-5.8-3.5-9.1c-0.3-2.1-0.2-4.6,0.4-6.6c0.9-2.9,3-3.9,5.6-4.6
				C417.3,323.3,416.5,330,415.5,336.8z M401.1,328.5c-8.5-9.8-14.6-26.3-12.8-39.3c2.2-15.5,15.8-26,31-25.7
				c0.4,6.5,0.6,13,0.5,19.5c-0.1,9-0.5,18-1.2,27c0,0-0.1,0-0.1,0c-3.7,0.9-8.1,2-10.3,5.4c-2,3.1-2.6,7.4-2.4,11
				c0.1,2.8,0.7,5.5,1.7,7.9C405.2,332.6,403,330.7,401.1,328.5z M519.2,430c-8.2-0.1-16.8-0.7-24.9-2.2c-7.2-1.4-18.2-4-22.6-10.5
				c0,0,0,0,0-0.1c-7.5-24.1-20.1-47-38.8-64.1c-3.8-3.5-7.9-6.6-12.1-9.6c0-0.2,0-0.4-0.1-0.6c0.1-0.2,0.1-0.4,0.2-0.6
				c2.9-19.6,4.9-39.4,5-59.2c0.1-19.9-1.4-40.4-7.8-59.4c-0.3-0.8-0.7-1.3-1.3-1.6c-1.1-0.9-2.6-1-3.8,0.3
				c-0.2,0.2-0.5,0.4-0.6,0.7c-3.3,3.6-6.9,7.4-12,8c-4.4,0.5-9.2,0.1-13.3-1.6c-9.8-4.1-16.4-14.3-16-24.9
				c0.4-10.5,6.6-20.4,17-23.5c11-3.3,23.6,1,28.8,11.4c1.7,3.4,6.8,0.6,5.4-2.8c0-0.1,0-0.3,0-0.4c-2-9.7,3.1-19,5.5-28.1
				c2.4-8.9,2.4-18.1,2.8-27.2c0.4-9.4,1.6-18.8,3.7-28c1.1-4.7,2.5-9.4,4.1-13.9c1.4-3.9,2.8-8.3,5.9-11.1c0.3,0,0.7,0,1-0.1
				c3.8,2.8,8.9,2.8,13.6,3c6.8,0.2,13.6-0.1,20.3-0.7c12.5-1.2,24.9-3.7,37.4-4.8c12.6-1.1,25.3-0.9,37.8,0.8
				c5.6,0.8,10.9,2.2,16.3,3.7c7,2,13.6,3.5,20.2,6.6c3,1.4,6.1,2.7,9,4.2c3.1,1.6,5.8,3.6,8.8,5.3c4,13.4,2,27.2-0.1,40.8
				c-2.9-0.5-5.9-1-8.8-1.4c-6.9-0.9-13.9-1.4-20.9-1.6c-6.6-0.1-14.4-0.9-21,0.7c-11.9-0.8-23.6-1.4-35.5-0.4
				c-19-0.7-38-3.6-57-2.4c-6.9,0.5-13.4,0.1-18.4,5.9c-4.8,5.6-6.3,15.4-7,22.5c-0.7,7.9,1.2,17,5.2,23.9
				c3.9,6.8,11.3,11.9,18.2,14.9c16.3,7.1,38.7,3.8,50.9-9.4c7.7-8.3,13.9-20.1,15.6-32.1c5-2,9.7-2.3,14.6-1.9
				c1.3,5.3,2.8,10.4,4.6,15.5c0,0.1,0.1,0.3,0.1,0.4c0.1,0.2,0.1,0.4,0.2,0.6c2,5.3,4.5,10.3,7.3,15.3c3.3,5.7,6.8,11.7,7.2,18.5
				c0.3,6.2-2.6,12.2-8.5,14.7c-2.6,1.1-5.6,1.5-8.3,0.8c-3.2-0.9-5-3.5-7.8-5c-5.2-2.9-10.9-1.1-16.4-0.5c-3,0.3-7,0.6-9.6-1
				c-3.4-2.2-3.2-6-0.8-8.9c2.6-3-1.7-7.3-4.3-4.3c-3,3.5-3.9,7.5-3.2,11c-25.5,3.1-55,15.3-57.1,44.7c-1,14.6,3.2,29.3,13.7,39.7
				c10.9,10.8,25.2,18.1,39.7,22.6c14.4,4.5,30.6,7.1,45.7,4.5c-2.2,3.4-3.9,7.2-5.5,10.9c-5.7,13.3-6.7,27.7-6.5,42.1
				c0.3,14.8,2.5,29.5,6.5,43.7C535.1,427.5,527.6,430,519.2,430z M530.5,153.6c-0.1-3.7-0.6-7.4-1.8-11c4.3-0.2,8.7-0.2,13,0
				c0.5,3.2,1,6.4,1.7,9.5C539,151.9,534.9,152.2,530.5,153.6z M520.5,142.9c0.4,0.1,0.8,0.2,1.3,0.1c0.2,0,0.4,0,0.6,0
				c5.6,13.3-0.8,30.5-9,41.3c-4.9,6.4-10.5,10.6-18.3,12.9c-8.7,2.5-18.2,2.8-26.8-0.2c-6.3-2.2-13.4-6.7-17-12.4
				c-3.7-5.8-5.4-13.7-4.9-20.5c0.4-6.2,1.7-16.4,6.7-20.7c2.3-2,4.3-2.2,7.2-2.3c3.6-0.1,7.2-0.6,10.9-0.6
				C487.5,140,504,142.1,520.5,142.9z M549.5,152.2c-0.6-3.2-1.2-6.3-1.7-9.5c1.6,0.1,3.3,0.2,4.9,0.3
				C551.1,145.9,550.2,149.2,549.5,152.2z M606,198.7c1.3,12.3,4.1,24.4,4.9,36.7c-8.8-11.9-27.9-17.1-42.1-18.2
				c0.6-1.5,1-3.1,1.2-4.7c0.4-3.3,0.1-6.4-0.6-9.4c2,0.7,4.1,1.1,6,1.5c5.4,1,11,1.6,16.4,0.5C597.1,204.3,601.7,201.6,606,198.7z
				 M547,419.5c-3.7-14.1-5.7-28.6-5.7-43.2c0-10,0.8-19.7,3.5-29.1c11.6,13.8,18.3,31.2,18.8,49.3c0,0.5,0.1,0.9,0.3,1.2
				c-2.1,3.8-4.4,7.5-7,11.1C554,412.8,550.7,416.4,547,419.5z M604.6,330.7c-3.2,15.3-14.8,28-23.8,40.3
				c-4.2,5.6-8.1,11.3-11.6,17.4c-2.3-17.8-9.9-34.4-22-47.7c0.7-1.9,1.5-3.7,2.5-5.6c2.7-5.5,5.9-10.3,11.6-12.9
				c5.5-2.6,10.6-5,14.9-9.4c3.5-3.6,6.1-7.6,7.8-11.9C600.4,299,607.5,317,604.6,330.7z M596,269.5c-11.8,8.1-28.4,7.8-42.2,8.3
				c-12,0.4-23.9-1.1-35.6-3.7c-10.6-2.4-22-5.4-31.2-11.4c-0.3-0.2-0.6-0.3-0.9-0.4c0.8-2.2,1.9-4.4,3.2-6.5
				c2.1-3.3-3.2-6.4-5.3-3.1c-4.8,7.6-6.9,16.4-5.9,25.3c0.4,3.9,6.5,3.9,6.1,0c-0.4-3.3-0.3-6.6,0.3-9.7c8.6,5.4,19,8.4,28.8,10.9
				c12.4,3.1,25.4,5.1,38.2,4.8c9-0.2,19.3-0.2,28.9-2c0.5,6.1,0.3,12-2.6,17.7c-2.9,5.6-6.9,10.4-12.4,13.6c-3.1,1.8-6.3,3-9.3,4.7
				c-0.1,0-0.2,0-0.3,0.1c-14.4,5.3-29.5,3.7-44.2,0.6c-13.4-2.8-26.9-8.7-38-16.8c-11.5-8.4-18.7-20-19.5-34.3
				c-0.8-14.7,5.1-27.5,17.5-35.6c10-6.5,23.7-9.7,35.4-10.9c0.4,0,0.8-0.2,1.1-0.3c1.8,1.8,4.4,3.2,7.6,3.7c3,0.5,5.9,0.3,8.9-0.1
				c3.3-0.4,7.3-1.7,10.6-0.6c2.7,0.9,4.6,3.7,7.2,5c2.4,1.2,5.2,1.8,7.9,1.8c6,0,11.4-2.9,15.1-7.3c0.1,0,0.3,0.1,0.5,0.1
				c10.4,0.5,21,2.8,30,8.1c7.3,4.3,13.5,9.2,13.8,18.3c0,0.3,0,0.5,0.1,0.7C607.8,257.9,603.4,264.4,596,269.5z M621.4,165.8
				c-1.2,6.2-3.3,12.4-7.1,17.6c-3.7,5.2-9.2,8.8-14.6,12c-5.4,3.2-10.6,4.6-16.9,4.1c-5.3-0.4-12.9-1.2-16.6-5.4
				c0,0-0.1-0.1-0.1-0.1c-2.5-5-5.6-9.9-8-14.9c-1.1-2.3-2.1-4.6-3-7c0-0.1,0-0.3,0-0.4c-0.9-4.7-1-9.6-0.3-14.3
				c0.6-3.9,1.7-11.4,5.2-13.8c0.3-0.2,0.5-0.4,0.7-0.7c5.9-1.1,12.7-0.4,18.4-0.3c6.9,0.1,13.8,0.6,20.6,1.5
				c5.5,0.8,12.9,0.9,17.3,3.8C623.2,152,622.7,159.4,621.4,165.8z"/>
		</g>
	</g>
	<g>
		<path d="M262,341.9h61.9v26H262v82.7h-27.8v-82.7H0L262,0V341.9z M234.3,341.9V85L51.5,341.9H234.3z"/>
	</g>
	<g>
		<path d="M738,0l262,367.9H765.7v82.7H738v-82.7h-61.9v-26H738V0z M948.5,341.9L765.7,85v256.8H948.5z"/>
	</g>
	<g>
		<g>
			<path class="st2" d="M339.2,501.4l-5.2,0.7l-6.6,0.3l-5.5-0.4l-3.4-0.8c-0.3-0.2-0.8-2.3-1.7-6.3c-0.8-3.6-2.2-5.6-4.3-5.9
				c-0.8,0.9-2,1.6-3.4,2c-1.4,0.4-2.3,0.8-2.5,1.3c-0.6,0.6-1,1.3-1.2,2.1l-0.3,2l0.1,1.5l0.2,1.5c-0.1,0.5-0.3,0.7-0.7,0.7
				c-2.1,0-5.1-0.2-9.3-0.7c-4.1-0.5-7.2-0.7-9.3-0.7l-1.7,1.5c-0.6,0.6-1,1.4-1,2.5c0.3,1.1,0.5,1.8,0.5,2l1.3,1.8
				c2.3,1.6,4.8,2.3,7.5,2.3l4.2-0.4l3.6-0.5c1.9,0,3.5,0.9,4.7,2.8c0.3,1.2,0.4,2.4,0.3,3.7l-0.8,12.4c-0.2,9.7-0.3,15.8-0.2,18.3
				l0.2,13.3l1.1,13.4l5.4,2l6.6-2.1v-34.9c0-13.6,0.2-21.3,0.6-23c0.4-1.7,0.9-2.7,1.5-2.9c0.6-0.2,1.3-0.4,2.2-0.4l8.7,1.2
				c1.4,0.2,2.5,0.4,3.4,0.4h5.4l1.4-1.9c0.6-0.8,0.8-1.7,0.8-2.8c0-1.7-0.3-3-1-3.8L339.2,501.4z"/>
			<path d="M312.5,489c2.1,0.4,3.6,2.3,4.3,5.9c0.8,4,1.4,6,1.7,6.3l3.4,0.8l5.5,0.4l6.6-0.3l5.2-0.7l1.7,2.2c0.6,0.8,1,2.1,1,3.8
				c0,1.1-0.3,2-0.8,2.8l-1.4,1.9h-5.4c-0.8-0.1-2-0.2-3.4-0.4l-8.7-1.2c-0.9,0-1.7,0.1-2.2,0.4c-0.6,0.2-1.1,1.2-1.5,2.9
				c-0.4,1.7-0.6,9.4-0.6,23v34.9l-6.6,2.1l-5.4-2l-1.1-13.4l-0.2-13.3c-0.1-2.5,0-8.7,0.2-18.3l0.8-12.4c0.1-1.3,0-2.5-0.3-3.7
				c-1.2-1.8-2.8-2.8-4.7-2.8l-3.6,0.5l-4.2,0.4c-2.7,0-5.2-0.8-7.5-2.3l-1.3-1.8c-0.1-0.2-0.2-0.9-0.5-2c0-1.1,0.3-2,1-2.5l1.7-1.5
				c2,0,5.1,0.2,9.3,0.7c4.1,0.5,7.2,0.7,9.3,0.7c0.4,0,0.7-0.2,0.7-0.7l-0.2-1.5l-0.1-1.5l0.3-2c0.2-0.8,0.6-1.5,1.2-2.1
				c0.3-0.5,1.1-0.9,2.5-1.3C310.5,490.6,311.6,490,312.5,489 M312.5,484c-1.4,0-2.7,0.6-3.7,1.6c-0.2,0.2-0.6,0.4-1,0.5
				c-1.6,0.4-3.8,1.2-5.2,3.1c-1,1.1-1.6,2.4-2,3.8c0,0.2-0.1,0.4-0.1,0.5l-0.2,1.3c-1.3-0.1-2.7-0.2-4.3-0.4
				c-4.4-0.5-7.6-0.7-9.8-0.7c-1.2,0-2.4,0.4-3.3,1.2l-1.7,1.5c-1.2,1.1-2.7,3.1-2.7,6.3c0,0.4,0,0.8,0.1,1.2
				c0.4,1.7,0.6,2.1,0.6,2.4c0.2,0.5,0.4,0.9,0.7,1.3l1.3,1.8c0.4,0.5,0.8,0.9,1.3,1.3c3.2,2.1,6.6,3.2,10.3,3.2c0.2,0,0.3,0,0.5,0
				l4.2-0.4c0.1,0,0.2,0,0.2,0l2.9-0.4c0,0.4,0,0.7,0,1.1l-0.8,12.4c0,0.1,0,0.2,0,0.2c-0.2,9.8-0.3,15.9-0.2,18.6l0.2,13.2
				c0,0.1,0,0.2,0,0.3l1.1,13.4c0.2,1.9,1.4,3.6,3.2,4.3l5.4,2c0.6,0.2,1.2,0.3,1.7,0.3c0.5,0,1-0.1,1.5-0.2l6.6-2.1
				c2.1-0.7,3.5-2.6,3.5-4.8v-34.9c0-14.4,0.2-19.4,0.4-21.1l6.9,0.9c1.5,0.2,2.7,0.4,3.7,0.5c0.1,0,0.3,0,0.4,0h5.4
				c1.6,0,3.1-0.8,4.1-2.1l1.4-1.9c1.2-1.6,1.8-3.6,1.8-5.7c0-2.8-0.7-5.1-2-6.8l-1.7-2.3c-1-1.3-2.4-2-4-2c-0.2,0-0.5,0-0.7,0.1
				l-5,0.7l-6,0.3l-4.8-0.4l-0.3-0.1c-0.2-0.7-0.4-1.8-0.7-3.1c-0.9-4-3-8.9-8.4-9.8C313,484.1,312.8,484,312.5,484L312.5,484z"/>
		</g>
		<g>
			<path class="st2" d="M513.3,565c-0.2-4.1-4-6.1-11.3-5.9c-3.5,0.1-8.9,0.7-16,1.8c-7.1,1.1-12.6,1.6-16.2,1.6
				c-4.2,0-7.4-1.6-9.3-4.8c-1.6-2.6-2.4-6-2.3-10.1c0.1-3,5.4-5.9,16.1-8.7c7.3-1.8,14.5-3.5,21.7-5.3c1.3-2.9,1.9-5,1.9-6.3
				c0-2.7-2-4-6-3.9c-4.5,0.1-11.2,2.2-20.2,6.5c-7.6,4-11.6,0.4-12-10.8c-0.2-4.1,0.3-7.2,1.5-9.3c1.6-2.8,4.5-4.3,8.7-4.8
				c8.1-0.8,15.7-2.5,22.6-4.9l2.9-5.7c-0.1-4.3-4.8-6.4-13.9-6.4c-5,0.1-9.3,0.2-12.7,0.4c-8.9,0.6-15.1,1.9-18.6,4.1
				c-5.5,3.4-8,8.3-7.5,14.8l0.6,10.1c0.5,6.7,0.7,12.9,0.7,18.5c-4.9,1.1-8.7,0.8-11.5-0.6c-1.9-1-3.5-1-5,0.1l-0.5-27.8v-28
				l-5.2-1.8l-5.8,1.8l0.4,1.5c0.7,1.8,1.2,3.2,1.4,4.2c0.2,1,0.4,2,0.4,2.8c0.3,1.3,0.5,2.4,0.5,3.1v3.7l-1.4,11.8
				c-0.9,7.2-1.4,13-1.4,17.3l-4.9-0.2c-2.6-1.7-4.8-1.7-6.6,0.1h-5.9c-6-0.4-11.1-0.1-15.3,1.1l-12.1,1l0.3-24.3l0.3-1.8l-0.5-3.6
				c-0.4-1.3-0.6-2.8-0.6-4.5l0.3-3.1l1.3-3.4c-0.5-1.4-1.2-2.4-2.2-3c-1-0.6-2.1-0.8-3.4-0.7c-4,0.1-5.9,1.8-5.9,5.1v12.3
				l-0.5,15.7c-0.1,3.2-0.3,7.1-0.7,11.8l-8.4-0.5c-3.5,1.6-5.6,4.2-6.5,7.7l2.3,5.5l2,1.4l3.7-1.6c2.1-0.5,4.7-0.7,7.8-0.7
				l-1.1,17.6l1.1,18.1l9-0.4l0.8-13.5c0.3-2.5,0.5-4.5,0.5-5.9c0.4-3.2,0.5-5.7,0.4-7.4l-0.4-8.5c6.5,1.3,11.5,1.9,15,1.9
				c5.8-0.8,10.1-1.3,13-1.7c4.2-0.6,10.1-0.8,17.5-0.8c-1.2,3.7-1.8,7.7-1.7,11.8c0.1,5.2,0.7,9.1,2,11.8c1.4,3,3,4.6,4.8,4.6
				c2.9-1.3,4.7-2.9,5.3-4.8c0.8-2.3,1.1-7,1-14.1l-0.1-4.3c2.9,1.6,5.8,2.4,8.8,2.4c1.7-0.1,3.1-0.4,4.3-0.7l3-0.8
				c1.5,0.1,2.2,2.8,2.2,8.1l0.1,16.4l1.9,2.8c0.4,0.4,0.8,0.9,1.3,1.4c0.5,0.5,1,0.9,1.5,1.3c1.3,0.8,3.9,1.2,8,1.4
				c9.1,0.3,13.6,0.4,13.4,0.4h3.5c8.2-0.7,13.3-1.2,15.2-1.5l17-2.9c2.8-0.5,4.7-1.1,5.5-1.9c0.6-0.6,1-1.1,1-1.7
				c0-0.6-0.1-1.1-0.3-1.3L513.3,565z"/>
			<path d="M421.8,477.8l5.2,1.8v28l0.5,27.8c0.7-0.5,1.5-0.8,2.4-0.8c0.8,0,1.7,0.2,2.6,0.7c1.6,0.9,3.6,1.3,5.9,1.3
				c1.7,0,3.5-0.2,5.5-0.7c0-5.6-0.2-11.7-0.7-18.5l-0.6-10.1c-0.5-6.5,2-11.5,7.5-14.8c3.5-2.2,9.7-3.6,18.6-4.1
				c3.5-0.2,7.7-0.4,12.7-0.4c0.1,0,0.3,0,0.4,0c8.8,0,13.3,2.1,13.5,6.4l-2.9,5.7c-6.9,2.4-14.5,4-22.6,4.9c-4.2,0.4-7.1,2-8.7,4.8
				c-1.2,2.1-1.7,5.2-1.5,9.3c0.3,8.3,2.5,12.4,6.7,12.4c1.5,0,3.3-0.5,5.3-1.6c8.9-4.2,15.6-6.4,20.2-6.5c0.1,0,0.2,0,0.3,0
				c3.8,0,5.7,1.3,5.7,3.9c0,1.3-0.6,3.4-1.9,6.3c-7.2,1.8-14.5,3.5-21.7,5.3c-10.7,2.8-16.1,5.7-16.1,8.7
				c-0.1,4.1,0.7,7.5,2.3,10.1c2,3.2,5.1,4.8,9.3,4.8c3.7,0,9.1-0.5,16.2-1.6c7.1-1.1,12.5-1.7,16-1.8c0.2,0,0.5,0,0.7,0
				c6.9,0,10.4,2,10.6,5.9l0.5,0.7c0.2,0.2,0.3,0.6,0.3,1.3c0,0.6-0.3,1.1-1,1.7c-0.8,0.8-2.7,1.4-5.5,1.9l-17,2.9
				c-1.9,0.3-7,0.8-15.2,1.5h-3.5c0.2,0-4.2-0.1-13.4-0.4c-4-0.1-6.7-0.6-8-1.4c-0.5-0.4-1-0.8-1.5-1.3c-0.5-0.5-0.9-1-1.3-1.4
				l-1.9-2.8l-0.1-16.4c0-5.3-0.7-8-2.2-8.1l-3,0.8c-1.2,0.4-2.7,0.6-4.3,0.7c-3,0-5.9-0.8-8.8-2.4l0.1,4.3c0.1,7.1-0.2,11.8-1,14.1
				c-0.6,1.9-2.4,3.5-5.3,4.8c-1.8,0-3.4-1.5-4.8-4.6c-1.3-2.7-1.9-6.6-2-11.8c-0.1-4.1,0.5-8,1.7-11.8c-7.4,0-13.3,0.3-17.5,0.8
				c-2.9,0.4-7.2,0.9-13,1.7c-3.5,0-8.5-0.6-15-1.9l0.4,8.5c0.1,1.8-0.1,4.2-0.4,7.4c-0.1,1.5-0.2,3.5-0.5,5.9l-0.8,13.5l-9,0.4
				l-1.1-18.1l1.1-17.6c-3.1,0-5.7,0.2-7.8,0.7l-3.7,1.6l-2-1.4l-2.3-5.5c0.8-3.5,3-6.1,6.5-7.7l8.4,0.5c0.4-4.7,0.7-8.6,0.7-11.8
				l0.5-15.7v-12.3c0-3.3,2-4.9,5.9-5.1c0.1,0,0.3,0,0.4,0c1.2,0,2.2,0.3,3,0.8c1,0.6,1.7,1.6,2.2,3l-1.3,3.4l-0.3,3.1
				c0,1.7,0.2,3.2,0.6,4.5l0.5,3.6l-0.3,1.8l-0.3,24.3l12.1-1c3-0.8,6.6-1.2,10.6-1.2c1.5,0,3.1,0.1,4.7,0.2h5.9
				c0.9-0.9,1.9-1.4,3-1.4c1.1,0,2.3,0.4,3.5,1.2l4.9,0.2c0-4.3,0.5-10.1,1.4-17.3l1.4-11.8v-3.7c-0.1-0.7-0.2-1.7-0.5-3.1
				c0-0.8-0.1-1.8-0.4-2.8c-0.2-1-0.7-2.4-1.4-4.2l-0.4-1.5L421.8,477.8 M421.8,472.8c-0.5,0-1,0.1-1.5,0.2l-5.8,1.8
				c-2.6,0.8-4.1,3.5-3.3,6.2l0.4,1.5c0,0.2,0.1,0.3,0.2,0.5c0.8,1.9,1.1,3,1.2,3.5c0.2,0.8,0.2,1.3,0.2,1.6c0,0.3,0,0.7,0.1,1
				c0.3,1.2,0.4,2,0.4,2.3v3.1l-1.3,11.5c-0.6,4.6-1,8.6-1.2,12.1c-1.2-0.5-2.4-0.7-3.6-0.7c-1.7,0-3.3,0.5-4.7,1.4h-4.1
				c-1.7-0.1-3.3-0.2-4.9-0.2c-4.2,0-8.1,0.4-11.4,1.3l-6.2,0.5l0.2-18.4l0.2-1.4c0.1-0.5,0.1-1.1,0-1.6l-0.5-3.6
				c0-0.3-0.1-0.6-0.2-0.9c-0.2-0.7-0.4-1.6-0.4-2.6l0.2-2.2l1-2.8c0.4-1.1,0.4-2.3,0-3.4c-0.9-2.5-2.4-4.4-4.3-5.6
				c-1.6-1-3.5-1.5-5.6-1.5c-0.2,0-0.4,0-0.7,0c-7.9,0.3-10.7,5.4-10.7,10.1v12.2l-0.5,15.6c0,0,0,0,0,0.1c0,1.9-0.2,4.1-0.3,6.6
				l-3.5-0.2c-0.1,0-0.2,0-0.3,0c-0.7,0-1.5,0.2-2.1,0.5c-4.8,2.3-8,6.1-9.2,11.1c-0.2,1-0.2,2.1,0.3,3.1l2.3,5.5
				c0.4,0.9,1,1.6,1.8,2.2l2,1.4c0.8,0.6,1.8,0.9,2.8,0.9c0.7,0,1.3-0.1,2-0.4l3.3-1.4c0.3-0.1,0.6-0.1,1-0.2l-0.7,12
				c0,0.2,0,0.4,0,0.6l1.1,18.1c0.2,2.7,2.4,4.7,5,4.7c0.1,0,0.2,0,0.2,0l9-0.4c2.5-0.1,4.6-2.1,4.8-4.7l0.8-13.3
				c0.3-2.5,0.5-4.4,0.5-6c0.4-3.4,0.5-6,0.4-8c0,0,0,0,0-0.1l-0.1-2.2c3.9,0.6,7.1,0.9,9.6,0.9c0.2,0,0.4,0,0.7,0
				c5.6-0.8,10-1.3,13-1.7c0,0,0,0,0.1,0c2.8-0.4,6.3-0.6,10.6-0.7c-0.3,2.2-0.5,4.5-0.4,6.8c0.1,5.9,0.9,10.5,2.5,13.8
				c1.6,3.4,4.5,7.4,9.3,7.4c0.7,0,1.4-0.1,2-0.4c4.2-1.9,6.9-4.5,8-7.8c0.6-1.7,1.3-4.8,1.2-12.9c1.2,0.2,2.4,0.3,3.7,0.3
				c0.1,0,0.3,0,0.4,0c1.5-0.1,2.9-0.3,4.1-0.6c0,0.6,0.1,1.3,0.1,2.1l0.1,16.5c0,1,0.3,2,0.9,2.8l1.9,2.8c0.1,0.1,0.2,0.2,0.3,0.4
				c0.5,0.5,1,1.1,1.6,1.7c0.7,0.7,1.4,1.3,2.1,1.8c0.1,0.1,0.2,0.1,0.3,0.2c2.1,1.3,5.3,1.9,10.4,2.1c10.8,0.3,12.8,0.4,13.2,0.4
				c0.1,0,0.2,0,0.3,0h3.5c0.1,0,0.3,0,0.4,0c8.4-0.7,13.5-1.2,15.5-1.5c0,0,0.1,0,0.1,0l17-2.9c3.9-0.7,6.4-1.7,8-3.1
				c2.2-1.9,2.6-4,2.6-5.4c0-1.5-0.4-2.9-1.1-3.9c-0.8-4-4-9-15.4-9c-0.3,0-0.5,0-0.8,0c-3.8,0.1-9.3,0.7-16.7,1.8
				c-6.9,1.1-12.1,1.6-15.5,1.6c-3.2,0-4.3-1.2-5.1-2.4c-1-1.6-1.5-3.8-1.6-6.6c0.8-0.7,3.7-2.5,12.3-4.7c7.3-1.8,14.5-3.5,21.7-5.3
				c1.5-0.4,2.8-1.4,3.4-2.8c1.6-3.7,2.3-6.2,2.3-8.3c0-4.3-2.8-8.9-10.7-8.9c-0.1,0-0.3,0-0.4,0c-5.3,0.1-12.6,2.4-22.2,7
				c-0.1,0-0.1,0.1-0.2,0.1c-1.7,0.9-2.6,1-3,1c0,0-0.1,0-0.1,0c-0.2-0.2-1.4-1.7-1.6-7.6c0,0,0-0.1,0-0.1c-0.2-4.1,0.4-5.9,0.8-6.6
				c0.3-0.5,1.1-1.9,4.8-2.3c8.5-0.9,16.5-2.6,23.7-5.1c1.2-0.4,2.2-1.3,2.8-2.5l2.9-5.7c0.4-0.7,0.6-1.6,0.5-2.4
				c-0.1-4-2.4-7.3-6.3-9.1c-2.9-1.4-6.9-2.1-12.1-2.1l-0.5,0c-5.1,0.1-9.5,0.2-13,0.4c-9.8,0.6-16.7,2.2-20.9,4.9
				c-7.1,4.4-10.5,11.1-9.9,19.4l0.6,10c0,0,0,0,0,0.1c0.4,4.9,0.6,9.5,0.7,13.7c-0.2,0-0.3,0-0.5,0c-1.5,0-2.7-0.2-3.5-0.7
				c-0.8-0.4-1.6-0.8-2.4-1l-0.4-22.4v-28c0-2.1-1.3-4-3.4-4.7l-5.2-1.8C422.9,472.9,422.4,472.8,421.8,472.8L421.8,472.8z"/>
		</g>
		<g>
			<path class="st2" d="M584.9,533.3l-4.9-0.6c-0.8-0.4-1.3-0.8-1.3-1.2c0-1.8-0.1-5.6-0.2-11.2c-0.1-5.9-0.2-10-0.2-12.2
				c-0.1-6.2-0.5-10.6-1.1-13.3c-0.3-1.3-2.1-2.6-5.5-3.9c-3-1.3-5.4-1.9-7-1.9c-1.3,0-3.8,3.7-7.6,11.1
				c-3.5,6.7-7.4,14.8-11.7,24.2c-4,8.6-5.9,13.2-5.9,13.8c0.1,3.9,1.1,6.5,3,8c1.9,1.4,3.9,2.1,5.8,2.1l16.5-3.9
				c1.3,0.1,2.1,0.6,2.1,1.7c0.1,2,0.6,6.3,1.5,12.9c0.8,5.6,1.6,9.2,2.4,10.7c1.6,2.8,4.6,4.2,9,4.2c0.4-0.1,0.7-0.3,1-0.5
				c0.2-0.2,0.3-0.7,0.3-1.6l-0.8-5.8l-0.5-12.1l-0.2-9.7c0-0.4,0.4-0.6,1.3-0.6l6.4,0.6c1.8-0.1,2.6-0.6,2.5-1.4
				c-0.1-1.3-0.6-3.2-1.6-5.5C587.1,534.6,586,533.3,584.9,533.3z M566.8,512.1v14.1v1.7v2.9l-0.1,1.5c-0.4,1.2-0.6,1.9-0.8,2.2
				c-0.4,0.5-1.4,0.7-3.2,0.7l-5.9,0.6l-3.4,0.6h-1.9c0.8-4.1,1.6-8.2,2.4-12.3c1.2-5.2,2.6-9.2,4.2-11.8c2.1-3.5,4.8-5.2,8.1-5.2
				c0.5,0.2,0.7,0.6,0.7,1.2C566.8,509.2,566.8,510.4,566.8,512.1z"/>
			<path d="M564.8,489c1.6,0,4,0.6,7,1.9c3.4,1.3,5.2,2.7,5.5,3.9c0.6,2.7,0.9,7.1,1.1,13.3c0,2.2,0.1,6.3,0.2,12.2
				c0.1,5.6,0.2,9.3,0.2,11.2c0,0.4,0.4,0.7,1.3,1.2l4.9,0.6c1.1,0,2.2,1.3,3.4,4c1,2.3,1.5,4.2,1.6,5.5c0.1,0.8-0.8,1.2-2.5,1.4
				l-6.4-0.6c-0.8,0-1.3,0.2-1.3,0.6l0.2,9.7l0.5,12.1l0.8,5.8c0,0.8-0.1,1.4-0.3,1.6c-0.2,0.2-0.5,0.4-1,0.5c-4.5,0-7.5-1.4-9-4.2
				c-0.8-1.6-1.7-5.1-2.4-10.7c-0.9-6.6-1.4-11-1.5-12.9c-0.1-1.1-0.8-1.6-2.1-1.7l-16.5,3.9c-2,0-3.9-0.7-5.8-2.1
				c-1.9-1.4-2.9-4.1-3-8c0-0.6,2-5.2,5.9-13.8c4.3-9.4,8.2-17.5,11.7-24.2C561,492.7,563.5,489,564.8,489 M551.4,536.4h1.9l3.4-0.6
				l5.9-0.6c1.8,0,2.8-0.2,3.2-0.7c0.2-0.3,0.5-1,0.8-2.2l0.1-1.5v-2.9v-1.7v-14.1c0-1.6,0-2.9,0-3.7c0-0.6-0.2-1-0.7-1.2
				c-3.3,0-6,1.7-8.1,5.2c-1.6,2.6-3,6.5-4.2,11.8C553.1,528.2,552.3,532.3,551.4,536.4 M564.8,484c-3.8,0-6.6,3.1-12.1,13.9
				c-3.5,6.7-7.4,15-11.8,24.4c-6.4,13.9-6.4,14.5-6.4,15.9c0,0,0,0.1,0,0.1c0.1,5.5,1.8,9.5,5,11.9c2.8,2.1,5.7,3.1,8.8,3.1
				c0.4,0,0.8,0,1.2-0.1l12.8-3c0.3,2.4,0.7,5.6,1.2,9.6c1.1,8.2,2.2,11,3,12.4c1.7,3.1,5.4,6.8,13.4,6.8c0.5,0,1.1-0.1,1.6-0.3
				c1.2-0.4,2.2-1,2.9-1.7c1.6-1.6,1.8-3.7,1.8-5.1c0-0.2,0-0.4,0-0.6l-0.7-5.6l-0.5-11.8l-0.1-4.7l2,0.2c0.2,0,0.3,0,0.5,0
				c0.1,0,0.3,0,0.4,0c1-0.1,3.9-0.3,5.8-2.5c1-1.2,1.5-2.6,1.4-4.2c-0.1-2-0.7-4.2-2-7.1c0,0,0-0.1,0-0.1c-0.8-1.9-3-6.7-7.6-7
				l-1.6-0.2c0-2-0.1-4.6-0.2-7.9c-0.1-5.8-0.2-9.9-0.2-12.1c0,0,0-0.1,0-0.1c-0.2-6.5-0.5-11.2-1.2-14.2c0,0,0,0,0-0.1
				c-0.9-4-5-6.1-8.5-7.5C570,484.8,567.1,484,564.8,484L564.8,484z M558.7,525.2c1.1-4.8,2.2-7.7,3.1-9.3v10.3v1.7v2.4l-4.1,0.4
				C558,528.8,558.4,527,558.7,525.2L558.7,525.2z"/>
		</g>
		<g>
			<path class="st2" d="M648.5,501.3c-4.1-6.5-8.4-10.1-12.9-10.9l-14.3-2.4l-8.2-1.5c-6.1,0-11.2,4.7-15.4,14
				c-4.6,10.3-6.7,19.7-6.2,28.4v2.3c0.1,1.4,0.5,4.7,1.3,9.8c1.2,7.8,5.3,14.5,12.3,20.3c7,5.8,14.4,8.6,22.2,8.6h2.2l2.1-0.2
				c8.6-0.8,15.1-5.7,19.5-14.4c3.5-7,5.2-15.3,5.2-25c0-3.6-0.4-7.8-1.3-12.6C654.1,512.3,652,506.9,648.5,501.3z M640.5,524
				c0,7.8-1.3,15.5-3.8,22.9c-2.8,8.1-6.6,12.1-11.6,12c-3.5-0.1-6.9-2.7-10.4-8c-3.9-5.9-6-10.2-6.4-12.9c-0.2-1.7-0.3-3.7-0.3-5.9
				c0.1-7.8,1.2-15.3,3.4-22.3c2.3-7.4,5.9-11.2,10.8-11.7c3.5,0.2,7.2,2.9,11,8.2c4.3,5.9,6.5,9.4,6.7,10.6
				c0.2,1.4,0.4,2.5,0.5,3.4V524z"/>
			<path d="M613.1,486.5l8.2,1.5l14.3,2.4c4.5,0.8,8.8,4.4,12.9,10.9c3.5,5.5,5.6,11,6.6,16.3c0.8,4.8,1.3,9,1.3,12.6
				c0,9.7-1.7,18-5.2,25c-4.4,8.8-10.9,13.6-19.5,14.4l-2.1,0.2h-2.2c-7.8,0-15.3-2.9-22.2-8.6c-7-5.8-11-12.5-12.3-20.3
				c-0.8-5.1-1.2-8.3-1.3-9.8v-2.3c-0.4-8.7,1.7-18.2,6.2-28.4C601.9,491.2,607.1,486.5,613.1,486.5 M625.4,558.9
				c4.8,0,8.6-4,11.3-12c2.5-7.4,3.8-15.1,3.8-22.9v-3.7c-0.1-0.8-0.3-2-0.5-3.4c-0.1-1.2-2.4-4.7-6.7-10.6c-3.8-5.2-7.5-8-11-8.2
				c-4.9,0.4-8.6,4.3-10.8,11.7c-2.2,7-3.3,14.4-3.4,22.3c0,2.3,0.1,4.2,0.3,5.9c0.4,2.8,2.5,7.1,6.4,12.9c3.5,5.2,6.9,7.9,10.4,8
				C625.2,558.9,625.3,558.9,625.4,558.9 M613.1,481.5c-8.2,0-14.9,5.7-19.9,17c-4.9,10.9-7.1,21.2-6.7,30.6v2.2c0,0.1,0,0.2,0,0.3
				c0.1,1,0.2,3.2,1.3,10.3c1.4,9,6.1,16.9,14,23.4c7.8,6.5,16.4,9.8,25.4,9.8h2.2c0.2,0,0.3,0,0.5,0l2.1-0.2
				c10.4-1,18.3-6.8,23.5-17.2c3.8-7.7,5.7-16.9,5.7-27.3c0-3.9-0.5-8.4-1.3-13.5c-1-6-3.5-12.1-7.3-18.1
				c-4.9-7.7-10.4-12.2-16.3-13.2l-14.3-2.4l-8.1-1.5C613.7,481.5,613.4,481.5,613.1,481.5L613.1,481.5z M625.4,553.9l-0.1,0
				c-1.7,0-4-2.2-6.4-5.7c-4.7-7.1-5.5-9.9-5.6-10.8c-0.2-1.5-0.3-3.3-0.3-5.3c0.1-7.3,1.1-14.3,3.2-20.8c1.5-4.9,3.6-7.7,6.1-8.1
				c1.1,0.2,3.5,1.3,7,6.1c4.4,6.1,5.6,8.1,5.8,8.7c0.2,1.1,0.3,2,0.4,2.8v3.3c0,7.3-1.2,14.4-3.5,21.3
				C630.9,548.5,628.6,553.9,625.4,553.9L625.4,553.9z"/>
		</g>
		<g>
			<path class="st2" d="M715.4,537.3c-1.2-2.7-2.3-4-3.4-4l-4.9-0.6c-0.8-0.4-1.3-0.8-1.3-1.2c0-1.8-0.1-5.6-0.2-11.2
				c-0.1-5.9-0.2-10-0.2-12.2c-0.1-6.2-0.5-10.6-1.1-13.3c-0.3-1.3-2.1-2.6-5.5-3.9c-3-1.3-5.4-1.9-7-1.9c-1.3,0-3.8,3.7-7.6,11.1
				c-3.5,6.7-7.4,14.8-11.7,24.2c-4,8.6-5.9,13.2-5.9,13.8c0.1,3.9,1.1,6.5,3,8c1.9,1.4,3.9,2.1,5.8,2.1l16.5-3.9
				c1.3,0.1,2.1,0.6,2.1,1.7c0.1,2,0.6,6.3,1.5,12.9c0.8,5.6,1.6,9.2,2.4,10.7c1.6,2.8,4.6,4.2,9,4.2c0.4-0.1,0.7-0.3,1-0.5
				c0.2-0.2,0.3-0.7,0.3-1.6l-0.8-5.8l-0.5-12.1l-0.2-9.7c0-0.4,0.4-0.6,1.3-0.6l6.4,0.6c1.8-0.1,2.6-0.6,2.5-1.4
				C716.9,541.5,716.4,539.6,715.4,537.3z M693.9,512.1v14.1v1.7v2.9l-0.1,1.5c-0.4,1.2-0.6,1.9-0.8,2.2c-0.4,0.5-1.4,0.7-3.2,0.7
				l-5.9,0.6l-3.4,0.6h-1.9c0.8-4.1,1.6-8.2,2.4-12.3c1.2-5.2,2.6-9.2,4.2-11.8c2.1-3.5,4.8-5.2,8.1-5.2c0.5,0.2,0.7,0.6,0.7,1.2
				C693.9,509.2,693.9,510.4,693.9,512.1z"/>
			<path d="M691.9,489c1.6,0,4,0.6,7,1.9c3.4,1.3,5.2,2.7,5.5,3.9c0.6,2.7,0.9,7.1,1.1,13.3c0,2.2,0.1,6.3,0.2,12.2
				c0.1,5.6,0.2,9.3,0.2,11.2c0,0.4,0.4,0.7,1.3,1.2l4.9,0.6c1.1,0,2.2,1.3,3.4,4c1,2.3,1.5,4.2,1.6,5.5c0.1,0.8-0.8,1.2-2.5,1.4
				l-6.4-0.6c-0.8,0-1.3,0.2-1.3,0.6l0.2,9.7l0.5,12.1l0.8,5.8c0,0.8-0.1,1.4-0.3,1.6c-0.2,0.2-0.5,0.4-1,0.5c-4.5,0-7.5-1.4-9-4.2
				c-0.8-1.6-1.7-5.1-2.4-10.7c-0.9-6.6-1.4-11-1.5-12.9c-0.1-1.1-0.8-1.6-2.1-1.7l-16.5,3.9c-2,0-3.9-0.7-5.8-2.1
				c-1.9-1.4-2.9-4.1-3-8c0-0.6,2-5.2,5.9-13.8c4.3-9.4,8.2-17.5,11.7-24.2C688,492.7,690.6,489,691.9,489 M678.5,536.4h1.9l3.4-0.6
				l5.9-0.6c1.8,0,2.8-0.2,3.2-0.7c0.2-0.3,0.5-1,0.8-2.2l0.1-1.5v-2.9v-1.7v-14.1c0-1.6,0-2.9,0-3.7c0-0.6-0.2-1-0.7-1.2
				c-3.3,0-6,1.7-8.1,5.2c-1.6,2.6-3,6.5-4.2,11.8C680.1,528.2,679.3,532.3,678.5,536.4 M691.9,484c-3.8,0-6.6,3.1-12.1,13.9
				c-3.5,6.7-7.4,15-11.8,24.4c-6.4,13.9-6.4,14.5-6.4,15.9c0,0,0,0.1,0,0.1c0.1,5.5,1.8,9.5,5,11.9c2.8,2.1,5.7,3.1,8.8,3.1
				c0.4,0,0.8,0,1.2-0.1l12.8-3c0.3,2.4,0.7,5.5,1.2,9.6c1.1,8.2,2.2,11,3,12.4c1.7,3.1,5.4,6.8,13.4,6.8c0.5,0,1.1-0.1,1.6-0.3
				c1.2-0.4,2.2-1,2.9-1.7c1.6-1.6,1.8-3.7,1.8-5.1c0-0.2,0-0.4,0-0.6l-0.7-5.6l-0.5-11.8l-0.1-4.7l2,0.2c0.2,0,0.3,0,0.5,0
				c0.1,0,0.3,0,0.4,0c1-0.1,3.9-0.3,5.8-2.5c1-1.2,1.5-2.6,1.4-4.2c-0.1-2-0.7-4.2-2-7.1c0,0,0-0.1,0-0.1c-0.8-1.9-3-6.7-7.6-7
				l-1.6-0.2c0-2-0.1-4.6-0.2-7.9c-0.1-5.8-0.2-9.9-0.2-12.1c0,0,0-0.1,0-0.1c-0.2-6.5-0.5-11.2-1.2-14.2c0,0,0,0,0-0.1
				c-0.9-4-5-6.1-8.5-7.5C697,484.8,694.2,484,691.9,484L691.9,484z M685.8,525.2c1.1-4.8,2.2-7.7,3.1-9.3v10.3v1.7v2.4l-4.1,0.4
				C685.1,528.8,685.5,527,685.8,525.2L685.8,525.2z"/>
		</g>
	</g>
</g>
</svg>
